<?xml version="1.0" standalone="no"?>
<!DOCTYPE svg PUBLIC "-//W3C//DTD SVG 20010904//EN"
 "http://www.w3.org/TR/2001/REC-SVG-20010904/DTD/svg10.dtd">
<svg version="1.0" xmlns="http://www.w3.org/2000/svg"
 width="500.000000pt" height="500.000000pt" viewBox="0 0 500.000000 500.000000"
 preserveAspectRatio="xMidYMid meet">

<g transform="translate(0.000000,500.000000) scale(0.100000,-0.100000)"
fill="#000000" stroke="none">
<path d="M2430 3923 c-36 -6 -123 -39 -182 -69 -258 -131 -534 -449 -703 -809
-58 -124 -128 -332 -149 -445 -9 -47 -19 -95 -21 -107 -4 -17 -18 -25 -63 -37
-401 -110 -633 -286 -696 -532 -27 -104 -16 -280 22 -351 27 -50 465 -288 732
-398 183 -75 454 -155 526 -155 168 0 760 82 1059 146 520 112 979 280 1391
510 71 39 80 62 69 162 -27 235 -148 393 -390 514 -74 37 -270 108 -299 108
-27 0 -56 37 -56 73 0 49 -62 265 -109 385 -109 273 -273 525 -468 718 -136
135 -312 244 -448 279 -55 14 -157 18 -215 8z m165 -174 c260 -48 617 -431
784 -842 96 -236 122 -350 128 -577 6 -215 -11 -344 -66 -510 -65 -195 -185
-379 -257 -393 -16 -3 -51 -11 -79 -17 -27 -6 -84 -15 -125 -20 -41 -5 -104
-13 -140 -19 -116 -19 -564 -13 -744 9 -226 28 -256 38 -310 106 -135 173
-212 385 -237 657 -44 480 161 1004 538 1374 135 132 246 202 367 228 78 17
72 17 141 4z m-1240 -1511 c3 -7 11 -69 19 -138 22 -184 72 -380 132 -519 27
-60 30 -89 11 -97 -21 -8 -196 55 -291 104 -97 51 -183 122 -225 187 -22 35
-26 51 -26 121 0 72 3 85 30 130 39 62 128 134 229 185 82 41 113 48 121 27z
m2455 -39 c96 -49 190 -133 219 -194 25 -54 28 -146 5 -200 -33 -80 -155 -180
-291 -241 -32 -14 -67 -29 -78 -34 -46 -21 -119 -41 -132 -36 -19 8 -16 26 16
97 68 150 114 328 131 509 6 63 13 121 15 128 7 20 33 14 115 -29z"/>
<path d="M4295 1461 c-22 -10 -60 -27 -85 -39 -585 -267 -1070 -405 -1714
-486 -65 -9 -121 -17 -123 -20 -10 -9 169 -28 462 -47 192 -13 695 -7 883 11
134 12 170 32 318 173 152 145 237 260 312 420 5 11 -10 8 -53 -12z"/>
<path d="M911 1131 c0 -7 133 -122 154 -133 8 -5 47 -8 87 -6 l73 3 -80 33
c-44 19 -115 51 -157 71 -43 21 -78 35 -77 32z"/>
<path d="M1301 853 c-20 -4 -8 -14 70 -56 506 -274 1183 -349 1779 -196 63 16
140 37 170 47 l55 17 -330 6 c-500 10 -769 39 -1190 130 -22 4 -85 20 -140 33
-86 22 -120 26 -245 25 -80 -1 -156 -4 -169 -6z"/>
</g>
</svg>
